<?xml version="1.0" standalone="no"?>
<svg viewBox="0 0 1024 1024" xmlns="http://www.w3.org/2000/svg">
  <path d="M909.1 209.3c-56.5-56.5-131.7-87.6-211.7-87.6C420.3 121.7 256 285.9 256 512s164.3 390.3 390.3 390.3 390.3-164.3 390.3-390.3c0-79.9-31.1-155.1-87.6-211.7l-45.2 45.2c-36.6 36.6-56.8 85.3-56.8 137.3 0 105.9 86.1 192 192 192s192-86.1 192-192-86.1-192-192-192c-52 0-100.7 20.2-137.3 56.8L209.3 909.1c-56.5-56.5-87.6-131.7-87.6-211.7 0-79.9 31.1-155.1 87.6-211.7s131.7-87.6 211.7-87.6c79.9 0 155.1 31.1 211.7 87.6l45.2-45.2z" fill="currentColor"/>
</svg> 